<svg id="Layer_1" data-name="Layer 1" xmlns="http://www.w3.org/2000/svg" viewBox="0 0 300 300"><defs><style>.cls-1{fill:#26a6b5;}.cls-2{fill:#3f3d56;}.cls-3{fill:#1a707a;}.cls-4{fill:#fff;stroke:#fff;stroke-miterlimit:10;stroke-width:0.5px;}</style></defs><path class="cls-1" d="M91.51,207a13.83,13.83,0,0,1-6-1.19c-5.16-2.42-10.4-4.89-10-14.89.24-6.35-7-12.63-9.08-12.72a19.92,19.92,0,0,1-12.51-3.75,13.93,13.93,0,0,0-6.85-1.25,21.36,21.36,0,0,1-2.53,0,11,11,0,0,1-8-4.71,5.51,5.51,0,0,1,0-5.09,23.56,23.56,0,0,1,2.77-4.35,14.09,14.09,0,0,0,2.77-4.86c.29-1.22,0-3-4.71-5.95a4.71,4.71,0,0,1-2.41-3.58c-.27-2.65,1.87-4.76,3.75-6.61l1.43-1.46L38.8,136a11.6,11.6,0,0,1-8.07-8.76c-.27-1.52-.42-3.33-.63-5.42-.68-7.18-1.6-17-7.26-23.26C15,89.87,11.64,82.87,18,72.89A6.83,6.83,0,0,1,22.81,69c2.35,0,3.78,1.49,5.18,3A17.37,17.37,0,0,0,39.48,78.7c4.92.86,10.31,2,15.49,3.16,8.25,1.81,19.57,4.28,21.83,3.39a4.86,4.86,0,0,1,5.75.39c2,1.87,1.93,5.21-.27,11.11a6.25,6.25,0,0,0-.42,2.71,6.89,6.89,0,0,1,5.81,1,6.67,6.67,0,0,1,1.91,8.93c-2.24,4.23-2.09,6.32-1.94,6.64a4.27,4.27,0,0,1,1.73,3,9.81,9.81,0,0,0,3.22-6.79,42.05,42.05,0,0,0-.51-5.24,18,18,0,0,1,1-12.54,10.77,10.77,0,0,0,1-8.93c-4.7-4.71-4.28-8.49-3-10.87,0-.18,0-1-2.8-4.11l-.84-1c-1.75-2-4.23-4.92-.23-9.36a3.85,3.85,0,0,0,.32-2.71,5.47,5.47,0,0,0-1-2.68S77,47.16,76.41,43.26a3,3,0,0,1,2.5-3.39,2.59,2.59,0,0,1,.48,0H263.26a3,3,0,0,1,3,3V158.19a1.41,1.41,0,0,1,0,.41,14.92,14.92,0,0,0,.48,7.81,10.44,10.44,0,0,1,3.33,13.72c-.41.78-.77,1.58-1.07,2.3-1,2.29-2.53,5.75-6.34,5.27-.75,0-6,0-10.87.18-22.07.56-33.86.68-36.9-.3A32.52,32.52,0,0,0,200,189.4c-1.31,1.1-3.7,1.43-10.19,2a48.53,48.53,0,0,0-9.5,1.4c-.24,0-22.78,10.13-28.68,8.94a32.37,32.37,0,0,0-7.53.89c-5.3.95-10.75,1.94-14.57.74a51.71,51.71,0,0,0-22.42.45l-2.09.6A53.85,53.85,0,0,1,91.51,207Z"/><path class="cls-2" d="M71.26,258.42a21.81,21.81,0,0,1-9.42,1.75q-7.59,0-11.93-4.46t-4.35-11.89q0-7.9,4.89-12.82a17.07,17.07,0,0,1,12.67-4.92,23.78,23.78,0,0,1,8.14,1.22v7.15a14.41,14.41,0,0,0-7.54-2,10,10,0,0,0-7.49,2.92,10.84,10.84,0,0,0-2.85,7.91,10.66,10.66,0,0,0,2.69,7.62,9.49,9.49,0,0,0,7.24,2.83,15.45,15.45,0,0,0,8-2.11Z"/><path class="cls-2" d="M90.93,260.17a15.33,15.33,0,0,1-11.53-4.61q-4.47-4.6-4.46-12,0-7.81,4.52-12.64t12-4.83a14.94,14.94,0,0,1,11.41,4.62q4.36,4.62,4.36,12.18,0,7.77-4.52,12.53A15.5,15.5,0,0,1,90.93,260.17Zm.33-27.7a7.48,7.48,0,0,0-6.21,2.93,12.25,12.25,0,0,0-2.3,7.76,12,12,0,0,0,2.3,7.74,7.93,7.93,0,0,0,12.11.08c1.5-1.84,2.25-4.41,2.25-7.68,0-3.42-.72-6.08-2.18-8A7.11,7.11,0,0,0,91.26,232.47Z"/><path class="cls-2" d="M139.2,226.63l-11.36,33h-8.41l-11.21-33h8l6.87,22.94a16.46,16.46,0,0,1,.66,3.29h.14a19.52,19.52,0,0,1,.71-3.38l6.83-22.85Z"/><path class="cls-2" d="M150.57,259.59h-7.42v-33h7.42Z"/><path class="cls-2" d="M158.07,259.59v-33h11.67q17.56,0,17.56,16.07,0,7.7-4.79,12.29t-12.77,4.6Zm7.42-26.91v20.89h3.68a9.93,9.93,0,0,0,7.57-2.9,11,11,0,0,0,2.75-7.88,10,10,0,0,0-2.73-7.41q-2.72-2.7-7.64-2.7Z"/><path class="cls-2" d="M235.89,226.63l-8.71,33H219l-5.47-21.14a17.72,17.72,0,0,1-.53-3.7h-.09a22.84,22.84,0,0,1-.6,3.7l-5.61,21.14h-8.57l-8.66-33h8.11l4.64,22a25.82,25.82,0,0,1,.44,3.77h.14a18.37,18.37,0,0,1,.66-3.86l6-21.86h8l5.4,22.14a26.27,26.27,0,0,1,.53,3.54h.09a23.49,23.49,0,0,1,.48-3.68l4.55-22Z"/><path class="cls-2" d="M265.52,259.59h-8.09l-2.34-7.33H243.37L241,259.59h-8l12-33h8.8Zm-12.13-13-3.54-11.08a14.45,14.45,0,0,1-.56-3h-.18a13.15,13.15,0,0,1-.57,2.87L245,246.56Z"/><polygon class="cls-3" points="125.97 168.94 133.18 161.72 136.56 165.1 129.46 172.2 125.97 168.94"/><polygon class="cls-3" points="151.6 122.38 194.16 122.38 162.02 156.04 144.47 164.7 132.15 153.14 138.44 138.04 151.6 122.38"/><path class="cls-4" d="M223.18,102.65l-7.44-7,10.48-11.17A7.65,7.65,0,1,0,236.7,73.33L218.09,55.86A7.65,7.65,0,0,0,207.61,67L197.13,78.19l-7.45-7A7.66,7.66,0,0,0,179.2,82.37l1.86,1.75-45.41,48.39a2.39,2.39,0,0,0-.5.76l-8.4,20.13a2.57,2.57,0,0,0,.62,2.85l1.86,1.75-8.73,9.3a2.57,2.57,0,0,0,.11,3.61l1.86,1.75-13.15,14a2.55,2.55,0,1,0,3.72,3.5l13.15-14,1.87,1.75a2.55,2.55,0,0,0,3.6-.12l8.74-9.3,1.86,1.74a2.56,2.56,0,0,0,2.88.44L164.7,161a2.8,2.8,0,0,0,.73-.55l45.41-48.39,1.86,1.74a7.65,7.65,0,1,0,10.48-11.16ZM213,65.05,211.1,63.3a2.55,2.55,0,1,1,3.5-3.72l18.61,17.47a2.55,2.55,0,0,1-3.5,3.72L227.85,79a2.55,2.55,0,0,0-3.6.12L212,92.17,200.85,81.69l12.23-13A2.56,2.56,0,0,0,213,65.05ZM129.69,172.43l-3.72-3.5,7-7.44,3.73,3.49ZM162,156.63l-17.55,8.67L142,163l-7.44-7-2.44-2.29,6.29-15.1,4.76,4.48a2.56,2.56,0,0,0,3.5-3.73l-5.59-5.24,7-7.44,5.59,5.24a2.55,2.55,0,0,0,3.49-3.72L151.6,123l7-7.45,5.59,5.24a2.55,2.55,0,0,0,3.49-3.72l-5.58-5.24,7-7.45,5.59,5.24a2.55,2.55,0,1,0,3.49-3.72l-5.58-5.24,12.23-13,22.33,21Zm54.18-46.54-3.72-3.49L186.42,82.14l-3.72-3.49a2.55,2.55,0,1,1,3.49-3.72l9.31,8.73,14.89,14,9.3,8.73a2.55,2.55,0,1,1-3.49,3.72Z"/></svg>